<svg width="14" height="18" viewBox="0 0 14 18" fill="none" xmlns="http://www.w3.org/2000/svg">
<path d="M6.99967 9.13501C7.45801 9.13501 7.85051 8.97167 8.17717 8.64501C8.50384 8.31834 8.6669 7.92612 8.66634 7.46834C8.66634 7.01001 8.50301 6.61751 8.17634 6.29084C7.84967 5.96417 7.45745 5.80112 6.99967 5.80167C6.54134 5.80167 6.14884 5.96501 5.82217 6.29167C5.49551 6.61834 5.33245 7.01056 5.33301 7.46834C5.33301 7.92667 5.49634 8.31917 5.82301 8.64584C6.14967 8.97251 6.5419 9.13556 6.99967 9.13501ZM6.99967 17.4683C4.76356 15.5656 3.09356 13.7983 1.98967 12.1667C0.885786 10.535 0.333563 9.02445 0.333008 7.63501C0.333008 5.55167 1.00329 3.89195 2.34384 2.65584C3.6844 1.41973 5.23634 0.801674 6.99967 0.801674C8.76356 0.801674 10.3158 1.41973 11.6563 2.65584C12.9969 3.89195 13.6669 5.55167 13.6663 7.63501C13.6663 9.0239 13.1141 10.5345 12.0097 12.1667C10.9052 13.7989 9.23523 15.5661 6.99967 17.4683Z" fill="#404040"/>
</svg>
