<svg width="21" height="21" viewBox="0 0 21 21" fill="none" xmlns="http://www.w3.org/2000/svg">
<path d="M4.6123 4.44418L5.39355 16.9442C5.43066 17.6664 5.95605 18.1942 6.64355 18.1942H13.8311C14.5213 18.1942 15.0369 17.6664 15.0811 16.9442L15.8623 4.44418" stroke="black" stroke-linecap="round" stroke-linejoin="round"/>
<path d="M3.3623 4.44418H17.1123H3.3623Z" fill="black"/>
<path d="M3.3623 4.44418H17.1123" stroke="black" stroke-miterlimit="10" stroke-linecap="round"/>
<path d="M7.7373 4.44419V2.88169C7.73694 2.75847 7.76095 2.6364 7.80793 2.52249C7.85492 2.40859 7.92396 2.3051 8.01109 2.21797C8.09821 2.13084 8.20171 2.0618 8.31561 2.01482C8.42952 1.96783 8.55159 1.94383 8.6748 1.94419H11.7998C11.923 1.94383 12.0451 1.96783 12.159 2.01482C12.2729 2.0618 12.3764 2.13084 12.4635 2.21797C12.5506 2.3051 12.6197 2.40859 12.6667 2.52249C12.7137 2.6364 12.7377 2.75847 12.7373 2.88169V4.44419M10.2373 6.94419V15.6942M7.4248 6.94419L7.7373 15.6942M13.0498 6.94419L12.7373 15.6942" stroke="black" stroke-linecap="round" stroke-linejoin="round"/>
</svg>
