<svg width="10" height="10" viewBox="0 0 10 10" fill="none" xmlns="http://www.w3.org/2000/svg">
<path d="M1.00781 8.21826H1.70781L6.02031 3.90576L5.32031 3.20576L1.00781 7.51826V8.21826ZM8.15781 3.18076L6.03281 1.08076L6.73281 0.380762C6.92448 0.189095 7.15998 0.0932617 7.43931 0.0932617C7.71831 0.0932617 7.95365 0.189095 8.14531 0.380762L8.84531 1.08076C9.03698 1.27243 9.13698 1.50376 9.14531 1.77476C9.15365 2.04543 9.06198 2.2766 8.87031 2.46826L8.15781 3.18076ZM0.507812 9.21826C0.366146 9.21826 0.247479 9.17026 0.151813 9.07426C0.0558126 8.97859 0.0078125 8.85993 0.0078125 8.71826V7.30576C0.0078125 7.23909 0.0203125 7.17459 0.0453125 7.11226C0.0703125 7.04959 0.107812 6.99326 0.157812 6.94326L5.30781 1.79326L7.43281 3.91826L2.28281 9.06826C2.23281 9.11826 2.17665 9.15576 2.11431 9.18076C2.05165 9.20576 1.98698 9.21826 1.92031 9.21826H0.507812ZM5.67031 3.55576L5.32031 3.20576L6.02031 3.90576L5.67031 3.55576Z" fill="black"/>
</svg>
