<svg width="18" height="14" viewBox="0 0 18 14" fill="none" xmlns="http://www.w3.org/2000/svg">
<path d="M15.667 3.77781L9.00033 7.94447L2.33366 3.77781V2.11114L9.00033 6.27781L15.667 2.11114M15.667 0.444473H2.33366C1.40866 0.444473 0.666992 1.18614 0.666992 2.11114V12.1111C0.666992 12.5532 0.842587 12.9771 1.15515 13.2897C1.46771 13.6022 1.89163 13.7778 2.33366 13.7778H15.667C16.109 13.7778 16.5329 13.6022 16.8455 13.2897C17.1581 12.9771 17.3337 12.5532 17.3337 12.1111V2.11114C17.3337 1.66911 17.1581 1.24519 16.8455 0.932629C16.5329 0.620068 16.109 0.444473 15.667 0.444473Z" fill="#404040"/>
</svg>
