<svg width="20" height="21" viewBox="0 0 20 21" fill="none" xmlns="http://www.w3.org/2000/svg">
<path d="M1.40103 7.31854H18.201M1.40103 13.3185H18.201M0.801025 10.3185C0.801025 11.5004 1.03382 12.6708 1.48611 13.7627C1.9384 14.8546 2.60134 15.8468 3.43706 16.6825C4.27279 17.5182 5.26494 18.1812 6.35687 18.6335C7.4488 19.0858 8.61913 19.3185 9.80103 19.3185C10.9829 19.3185 12.1532 19.0858 13.2452 18.6335C14.3371 18.1812 15.3293 17.5182 16.165 16.6825C17.0007 15.8468 17.6636 14.8546 18.1159 13.7627C18.5682 12.6708 18.801 11.5004 18.801 10.3185C18.801 9.13665 18.5682 7.96632 18.1159 6.87439C17.6636 5.78246 17.0007 4.79031 16.165 3.95458C15.3293 3.11885 14.3371 2.45592 13.2452 2.00363C12.1532 1.55133 10.9829 1.31854 9.80103 1.31854C8.61913 1.31854 7.4488 1.55133 6.35687 2.00363C5.26494 2.45592 4.27279 3.11885 3.43706 3.95458C2.60134 4.79031 1.9384 5.78246 1.48611 6.87439C1.03382 7.96632 0.801025 9.13665 0.801025 10.3185Z" stroke="black" stroke-width="1.5" stroke-linecap="round" stroke-linejoin="round"/>
<path d="M9.30094 1.31854C7.61628 4.01815 6.72314 7.13641 6.72314 10.3185C6.72314 13.5007 7.61628 16.6189 9.30094 19.3185M10.3009 1.31854C11.9856 4.01815 12.8787 7.13641 12.8787 10.3185C12.8787 13.5007 11.9856 16.6189 10.3009 19.3185" stroke="black" stroke-width="1.5" stroke-linecap="round" stroke-linejoin="round"/>
</svg>
