<svg width="21" height="21" viewBox="0 0 21 21" fill="none" xmlns="http://www.w3.org/2000/svg">
<g clip-path="url(#clip0_492_4)">
<path d="M0.923584 17.2461V14.9128C0.923584 14.4406 1.04525 14.0064 1.28858 13.6103C1.53192 13.2142 1.8547 12.9122 2.25692 12.7045C3.11803 12.2739 3.99303 11.9509 4.88192 11.7353C5.77081 11.5197 6.67358 11.4122 7.59025 11.4128C8.50692 11.4128 9.4097 11.5206 10.2986 11.7361C11.1875 11.9517 12.0625 12.2745 12.9236 12.7045C13.3264 12.9128 13.6494 13.215 13.8928 13.6111C14.1361 14.0072 14.2575 14.4411 14.2569 14.9128V17.2461H0.923584ZM15.9236 17.2461V14.7461C15.9236 14.135 15.7533 13.5481 15.4128 12.9853C15.0722 12.4225 14.5897 11.94 13.9653 11.5378C14.6736 11.6211 15.3403 11.7636 15.9653 11.9653C16.5903 12.167 17.1736 12.4134 17.7153 12.7045C18.2153 12.9822 18.5972 13.2911 18.8611 13.6311C19.125 13.9711 19.2569 14.3428 19.2569 14.7461V17.2461H15.9236ZM7.59025 10.5795C6.67358 10.5795 5.88886 10.2531 5.23608 9.6003C4.58331 8.94752 4.25692 8.1628 4.25692 7.24614C4.25692 6.32947 4.58331 5.54475 5.23608 4.89197C5.88886 4.23919 6.67358 3.9128 7.59025 3.9128C8.50692 3.9128 9.29164 4.23919 9.94442 4.89197C10.5972 5.54475 10.9236 6.32947 10.9236 7.24614C10.9236 8.1628 10.5972 8.94752 9.94442 9.6003C9.29164 10.2531 8.50692 10.5795 7.59025 10.5795ZM15.9236 7.24614C15.9236 8.1628 15.5972 8.94752 14.9444 9.6003C14.2916 10.2531 13.5069 10.5795 12.5903 10.5795C12.4375 10.5795 12.243 10.562 12.0069 10.527C11.7708 10.492 11.5764 10.4539 11.4236 10.4128C11.7986 9.96836 12.0869 9.4753 12.2886 8.93364C12.4903 8.39197 12.5908 7.82947 12.5903 7.24614C12.5903 6.6628 12.4897 6.1003 12.2886 5.55864C12.0875 5.01697 11.7991 4.52391 11.4236 4.07947C11.618 4.01002 11.8125 3.96475 12.0069 3.94364C12.2014 3.92252 12.3958 3.91225 12.5903 3.9128C13.5069 3.9128 14.2916 4.23919 14.9444 4.89197C15.5972 5.54475 15.9236 6.32947 15.9236 7.24614Z" fill="#0B80D5"/>
</g>
<defs>
<clipPath id="clip0_492_4">
<rect width="20" height="20" fill="white" transform="translate(0.090332 0.579468)"/>
</clipPath>
</defs>
</svg>
