<svg width="8" height="14" viewBox="0 0 8 14" fill="none" xmlns="http://www.w3.org/2000/svg">
<path d="M1.87186 0.89047L7.48853 6.49047C7.5552 6.55714 7.60253 6.62936 7.63053 6.70714C7.65853 6.78491 7.67231 6.86825 7.67186 6.95714C7.67186 7.04603 7.65809 7.12936 7.63053 7.20714C7.60298 7.28491 7.55564 7.35714 7.48853 7.4238L1.87186 13.0405C1.71631 13.196 1.52186 13.2738 1.28853 13.2738C1.0552 13.2738 0.855198 13.1905 0.688532 13.0238C0.521865 12.8571 0.438532 12.6627 0.438532 12.4405C0.438532 12.2182 0.521865 12.0238 0.688532 11.8571L5.58853 6.95714L0.688532 2.05714C0.532976 1.90158 0.455198 1.7098 0.455198 1.4818C0.455198 1.2538 0.538531 1.05669 0.705198 0.89047C0.871865 0.723803 1.06631 0.64047 1.28853 0.64047C1.51075 0.64047 1.7052 0.723803 1.87186 0.89047Z" fill="black"/>
</svg>
