<svg width="8" height="14" viewBox="0 0 8 14" fill="none" xmlns="http://www.w3.org/2000/svg">
<path d="M5.85079 13.0238L0.234125 7.42384C0.167458 7.35717 0.120125 7.28495 0.0921249 7.20717C0.0641249 7.12939 0.0503472 7.04606 0.0507917 6.95717C0.0507917 6.86828 0.0645693 6.78495 0.0921249 6.70717C0.11968 6.62939 0.167014 6.55717 0.234125 6.4905L5.85079 0.873836C6.00635 0.718281 6.20079 0.640503 6.43412 0.640503C6.66746 0.640503 6.86746 0.723836 7.03412 0.890503C7.20079 1.05717 7.28412 1.25161 7.28412 1.47384C7.28412 1.69606 7.20079 1.8905 7.03412 2.05717L2.13413 6.95717L7.03412 11.8572C7.18968 12.0127 7.26746 12.2045 7.26746 12.4325C7.26746 12.6605 7.18412 12.8576 7.01746 13.0238C6.85079 13.1905 6.65635 13.2738 6.43412 13.2738C6.2119 13.2738 6.01746 13.1905 5.85079 13.0238Z" fill="black"/>
</svg>
