<svg width="16" height="16" viewBox="0 0 16 16" fill="none" xmlns="http://www.w3.org/2000/svg">
<path d="M13.8333 7.56947C13.8333 5.94447 13.2672 4.56614 12.135 3.43447C11.0028 2.30281 9.62445 1.7367 8 1.73614V0.0694733C9.04167 0.0694733 10.0175 0.267529 10.9275 0.66364C11.8375 1.05975 12.6292 1.59447 13.3025 2.26781C13.9758 2.94114 14.5106 3.73281 14.9067 4.64281C15.3028 5.55281 15.5006 6.52836 15.5 7.56947H13.8333ZM10.5 7.56947C10.5 6.87503 10.2569 6.28475 9.77083 5.79864C9.28472 5.31253 8.69445 5.06947 8 5.06947V3.40281C9.15278 3.40281 10.1356 3.8092 10.9483 4.62197C11.7611 5.43475 12.1672 6.41725 12.1667 7.56947H10.5ZM14.625 15.1111C12.8333 15.1111 11.0867 14.7117 9.385 13.9128C7.68333 13.1139 6.17639 12.0584 4.86417 10.7461C3.55195 9.43392 2.49639 7.92697 1.6975 6.22531C0.898612 4.52364 0.499445 2.77725 0.500001 0.98614C0.500001 0.73614 0.583334 0.527807 0.750001 0.36114C0.916667 0.194473 1.125 0.11114 1.375 0.11114H4.75C4.94445 0.11114 5.11806 0.17364 5.27083 0.29864C5.42361 0.42364 5.51389 0.583362 5.54167 0.777807L6.08333 3.69447C6.11111 3.88892 6.1075 4.06614 6.0725 4.22614C6.0375 4.38614 5.95778 4.52836 5.83333 4.65281L3.83333 6.69447C4.41667 7.69447 5.14583 8.63197 6.02083 9.50697C6.89583 10.382 7.86111 11.1389 8.91667 11.7778L10.875 9.81947C11 9.69447 11.1633 9.60086 11.365 9.53864C11.5667 9.47642 11.7644 9.45892 11.9583 9.48614L14.8333 10.0695C15.0278 10.1111 15.1875 10.205 15.3125 10.3511C15.4375 10.4973 15.5 10.6673 15.5 10.8611V14.2361C15.5 14.4861 15.4167 14.6945 15.25 14.8611C15.0833 15.0278 14.875 15.1111 14.625 15.1111Z" fill="#404040"/>
</svg>
