<svg width="17" height="17" viewBox="0 0 17 17" fill="none" xmlns="http://www.w3.org/2000/svg">
<path d="M8.18488 13.118L4.48488 15.943C4.30154 16.093 4.10154 16.164 3.88488 16.156C3.66821 16.148 3.47654 16.0853 3.30988 15.968C3.14321 15.8513 3.01421 15.693 2.92288 15.493C2.83154 15.293 2.82721 15.0763 2.90988 14.843L4.33488 10.218L0.709877 7.64297C0.509877 7.50964 0.384877 7.33464 0.334877 7.11798C0.284877 6.90131 0.293211 6.70131 0.359877 6.51797C0.426544 6.33464 0.543211 6.17197 0.709877 6.02997C0.876544 5.88797 1.07654 5.81731 1.30988 5.81797H5.78488L7.23488 1.01797C7.31821 0.784641 7.44754 0.605308 7.62288 0.479974C7.79821 0.354641 7.98554 0.292307 8.18488 0.292974C8.38488 0.292974 8.57255 0.355641 8.74788 0.480974C8.92321 0.606308 9.05221 0.785307 9.13488 1.01797L10.5849 5.81797H15.0599C15.2932 5.81797 15.4932 5.88898 15.6599 6.03097C15.8265 6.17298 15.9432 6.33531 16.0099 6.51797C16.0765 6.70131 16.0849 6.90131 16.0349 7.11798C15.9849 7.33464 15.8599 7.50964 15.6599 7.64297L12.0349 10.218L13.4599 14.843C13.5432 15.0763 13.5392 15.293 13.4479 15.493C13.3565 15.693 13.2272 15.8513 13.0599 15.968C12.8932 16.0846 12.7015 16.1473 12.4849 16.156C12.2682 16.1646 12.0682 16.0936 11.8849 15.943L8.18488 13.118Z" fill="#FFD600"/>
</svg>
