<svg width="10" height="7" viewBox="0 0 10 7" fill="none" xmlns="http://www.w3.org/2000/svg">
<path d="M9.47964 2.04788L5.27964 6.26038C5.22964 6.31038 5.17547 6.34588 5.11714 6.36688C5.05881 6.38788 4.99631 6.39821 4.92964 6.39788C4.86297 6.39788 4.80047 6.38755 4.74214 6.36688C4.68381 6.34621 4.62964 6.31071 4.57964 6.26038L0.367139 2.04788C0.250472 1.93121 0.192139 1.78538 0.192139 1.61038C0.192139 1.43538 0.254639 1.28538 0.379639 1.16038C0.504639 1.03538 0.650472 0.972881 0.817139 0.972881C0.983805 0.972881 1.12964 1.03538 1.25464 1.16038L4.92964 4.83538L8.60464 1.16038C8.72131 1.04371 8.86514 0.985381 9.03614 0.985381C9.20714 0.985381 9.35497 1.04788 9.47964 1.17288C9.60464 1.29788 9.66714 1.44371 9.66714 1.61038C9.66714 1.77705 9.60464 1.92288 9.47964 2.04788Z" fill="white"/>
</svg>
